<svg xmlns="http://www.w3.org/2000/svg" viewBox="0 0 1512.09 631.88"><defs><style>.cls-1{fill:#fff;}.cls-10,.cls-2,.cls-3,.cls-4,.cls-6,.cls-7,.cls-8{fill:none;}.cls-10,.cls-2,.cls-3,.cls-4,.cls-6,.cls-8{stroke:#fff;}.cls-10,.cls-2,.cls-4,.cls-7,.cls-8{stroke-linejoin:round;}.cls-2,.cls-3,.cls-4,.cls-6{stroke-width:4px;}.cls-3,.cls-6{stroke-miterlimit:10;}.cls-10,.cls-4,.cls-6,.cls-7,.cls-8{stroke-linecap:round;}.cls-5{fill:#c75000;}.cls-7{stroke:#4ec4f1;stroke-dasharray:5 15;}.cls-10,.cls-7,.cls-8{stroke-width:8px;}.cls-8{stroke-dasharray:0.01 15;}.cls-9{fill:#35b0cb;}.cls-10{stroke-dasharray:0.01 15.01;}.cls-11{fill:#4ec4f1;}</style></defs><title>Asset 1</title><g id="Layer_2" data-name="Layer 2"><g id="Isolation_Mode" data-name="Isolation Mode"><g id="_Group_" data-name="&lt;Group&gt;"><path class="cls-1" d="M680.09,181.85V354.22a3.32,3.32,0,0,0,3.32,3.32h126a3.31,3.31,0,0,0,3.31-3.32V215a2.13,2.13,0,0,0,0-.21,3.13,3.13,0,0,0-.17-.85c0-.11-.06-.21-.11-.31a3.28,3.28,0,0,0-.66-1L778.55,179.5a3.22,3.22,0,0,0-1-.66l-.3-.11a3.29,3.29,0,0,0-.86-.17c-.06,0-.12,0-.19,0H683.4a3.31,3.31,0,0,0-3.32,3.31Zm121.28,29.83H779.54V189.85ZM686.72,185.16h86.19V215a3.31,3.31,0,0,0,3.31,3.31h29.83v132.6H686.72Zm0,0"/><path class="cls-1" d="M819.32,331v6.63h9.94a3.31,3.31,0,0,0,3.32-3.31V162a3.31,3.31,0,0,0-3.32-3.32h-126A3.31,3.31,0,0,0,700,162v9.94h6.63v-6.63H825.94V331Zm0,0"/><rect class="cls-1" x="706.61" y="224.94" width="79.56" height="6.63"/><rect class="cls-1" x="706.61" y="205.05" width="26.52" height="6.63"/><rect class="cls-1" x="706.61" y="244.83" width="53.04" height="6.63"/><rect class="cls-1" x="766.28" y="244.83" width="19.89" height="6.63"/><rect class="cls-1" x="706.61" y="264.72" width="79.56" height="6.63"/><rect class="cls-1" x="706.61" y="304.5" width="79.56" height="6.63"/><rect class="cls-1" x="736.44" y="284.61" width="49.72" height="6.63"/><rect class="cls-1" x="706.61" y="284.61" width="23.21" height="6.63"/><rect class="cls-1" x="706.61" y="324.39" width="13.26" height="6.63"/><rect class="cls-1" x="726.5" y="324.39" width="59.67" height="6.63"/><polygon id="_Path_" data-name="&lt;Path&gt;" class="cls-2" points="152.33 339.79 55.95 393.23 248.7 393.23 152.33 339.79"/><polyline id="_Path_2" data-name="&lt;Path&gt;" class="cls-3" points="234.82 393.23 234.82 405.27 69.84 405.27 69.84 393.23"/><polyline id="_Path_3" data-name="&lt;Path&gt;" class="cls-3" points="234.82 507.02 234.82 491.71 69.84 491.71 69.84 507.02"/><path id="_Path_4" data-name="&lt;Path&gt;" class="cls-3" d="M100.39,415.54a5.25,5.25,0,0,1-10.49,0H80.33a5.25,5.25,0,0,1-10.49,0V405.27h30.55Z"/><path id="_Path_5" data-name="&lt;Path&gt;" class="cls-3" d="M100.39,481.44a5.25,5.25,0,0,0-10.49,0H80.33a5.25,5.25,0,0,0-10.49,0v10.28h30.55Z"/><path id="_Path_6" data-name="&lt;Path&gt;" class="cls-3" d="M167.61,481.44a5.25,5.25,0,0,0-10.49,0h-9.57a5.25,5.25,0,0,0-10.49,0v10.28h30.55Z"/><path id="_Path_7" data-name="&lt;Path&gt;" class="cls-3" d="M234.82,481.44a5.25,5.25,0,0,0-10.49,0h-9.57a5.25,5.25,0,0,0-10.49,0v10.28h30.55Z"/><path id="_Path_8" data-name="&lt;Path&gt;" class="cls-3" d="M167.61,415.54a5.25,5.25,0,0,1-10.49,0h-9.57a5.25,5.25,0,0,1-10.49,0V405.27h30.55Z"/><path id="_Path_9" data-name="&lt;Path&gt;" class="cls-3" d="M234.82,415.54a5.25,5.25,0,0,1-10.49,0h-9.57a5.25,5.25,0,0,1-10.49,0V405.27h30.55Z"/><g id="_Group_2" data-name="&lt;Group&gt;"><line id="_Path_10" data-name="&lt;Path&gt;" class="cls-3" x1="75.08" y1="420.79" x2="75.08" y2="476.19"/><line id="_Path_11" data-name="&lt;Path&gt;" class="cls-3" x1="95.14" y1="420.79" x2="95.14" y2="476.19"/></g><line id="_Path_12" data-name="&lt;Path&gt;" class="cls-3" x1="142.3" y1="420.79" x2="142.3" y2="476.19"/><line id="_Path_13" data-name="&lt;Path&gt;" class="cls-3" x1="162.36" y1="420.79" x2="162.36" y2="476.19"/><line id="_Path_14" data-name="&lt;Path&gt;" class="cls-3" x1="209.52" y1="420.79" x2="209.52" y2="476.19"/><line id="_Path_15" data-name="&lt;Path&gt;" class="cls-3" x1="229.58" y1="420.79" x2="229.58" y2="476.19"/><g id="_Group_3" data-name="&lt;Group&gt;"><path id="_Path_16" data-name="&lt;Path&gt;" class="cls-4" d="M356.35,412.54a1,1,0,0,1,1,.38l85.53,118.65a1,1,0,0,1-.92,1.57l-46-4.83a1,1,0,0,1-.7-.41l-16.39-22.73-4.08,27.72a1,1,0,0,1-.44.68l-38.6,25.46a1,1,0,0,1-1.07,0h0a1,1,0,0,1-.45-1L355.6,413.36A1,1,0,0,1,356.35,412.54Z"/><polygon id="_Path_17" data-name="&lt;Path&gt;" class="cls-5" points="369.18 465.21 361.66 517.32 372.38 505.61 374.88 488.58 384.95 502.53 400.3 508.49 369.18 465.21"/></g><g id="_Group_4" data-name="&lt;Group&gt;"><g id="_Group_5" data-name="&lt;Group&gt;"><rect id="_Rectangle_" data-name="&lt;Rectangle&gt;" class="cls-4" x="1288.16" y="390.29" width="30.47" height="116.77" transform="translate(0.83 -2.4) rotate(0.11)"/><path id="_Path_18" data-name="&lt;Path&gt;" class="cls-6" d="M1312.93,369.46l-18.78,0a5.84,5.84,0,0,0-5.86,5.83l0,15,30.47.06,0-15A5.85,5.85,0,0,0,1312.93,369.46Z"/><rect id="_Path_19" data-name="&lt;Path&gt;" class="cls-5" x="1300.07" y="371.61" width="6.89" height="16.52" transform="translate(921.14 1682.65) rotate(-89.89)"/><polygon id="_Path_20" data-name="&lt;Path&gt;" class="cls-4" points="1288.05 507.03 1303.64 537.27 1318.52 507.09 1288.05 507.03"/><path id="_Path_21" data-name="&lt;Path&gt;" class="cls-5" d="M1310.8,433.66l.07-35.49-14.75,0s9.82,8.74,14.68,35.52Z"/><line id="_Path_22" data-name="&lt;Path&gt;" class="cls-4" x1="1303.52" y1="507.03" x2="1303.52" y2="475.14"/></g><g id="_Group_6" data-name="&lt;Group&gt;"><path id="_Path_23" data-name="&lt;Path&gt;" class="cls-4" d="M1413.57,522.15h0a7,7,0,0,1-7-7l.17-124.88,14,.06-.17,124.84A7,7,0,0,1,1413.57,522.15Z"/><path id="_Path_24" data-name="&lt;Path&gt;" class="cls-6" d="M1413.77,369.42h0a7,7,0,0,0-7,7v13.83h14V376.43A7,7,0,0,0,1413.77,369.42Z"/><path id="_Path_25" data-name="&lt;Path&gt;" class="cls-6" d="M1420.77,381.42h4.07a6.63,6.63,0,0,1,6.63,6.63V409.2"/><line id="_Path_26" data-name="&lt;Path&gt;" class="cls-4" x1="1413.68" y1="522.18" x2="1413.68" y2="537.27"/></g><g id="_Group_7" data-name="&lt;Group&gt;"><line id="_Path_27" data-name="&lt;Path&gt;" class="cls-6" x1="1378.13" y1="525.8" x2="1369.69" y2="525.8"/><line id="_Path_28" data-name="&lt;Path&gt;" class="cls-6" x1="1378.13" y1="512.27" x2="1362.89" y2="512.27"/><line id="_Path_29" data-name="&lt;Path&gt;" class="cls-6" x1="1378.13" y1="498.74" x2="1369.69" y2="498.74"/><line id="_Path_30" data-name="&lt;Path&gt;" class="cls-6" x1="1378.13" y1="485.21" x2="1362.89" y2="485.21"/><rect id="_Rectangle_2" data-name="&lt;Rectangle&gt;" class="cls-3" x="1347.66" y="369.42" width="30.47" height="166.41"/><line id="_Path_31" data-name="&lt;Path&gt;" class="cls-6" x1="1378.13" y1="471.68" x2="1369.69" y2="471.68"/><line id="_Path_32" data-name="&lt;Path&gt;" class="cls-6" x1="1378.13" y1="458.15" x2="1362.89" y2="458.15"/><line id="_Path_33" data-name="&lt;Path&gt;" class="cls-6" x1="1378.13" y1="444.62" x2="1369.69" y2="444.62"/><line id="_Path_34" data-name="&lt;Path&gt;" class="cls-6" x1="1378.13" y1="431.09" x2="1362.89" y2="431.09"/><line id="_Path_35" data-name="&lt;Path&gt;" class="cls-6" x1="1378.13" y1="417.56" x2="1369.69" y2="417.56"/><path id="_Path_36" data-name="&lt;Path&gt;" class="cls-5" d="M1370.27,404V377.29h-14.75v13A24.06,24.06,0,0,1,1370.27,404Z"/></g></g><g id="_Group_8" data-name="&lt;Group&gt;"><polyline id="_Path_37" data-name="&lt;Path&gt;" class="cls-4" points="1435.51 119.82 1435.51 203.49 1398.36 203.49"/><polyline id="_Path_38" data-name="&lt;Path&gt;" class="cls-4" points="1410.16 74.84 1435.51 74.84 1435.51 80.8"/><polyline id="_Path_39" data-name="&lt;Path&gt;" class="cls-4" points="1359.96 203.49 1306.86 203.49 1306.86 185.61"/><rect id="_Rectangle_3" data-name="&lt;Rectangle&gt;" class="cls-4" x="1289.7" y="69.29" width="128.64" height="128.64" transform="translate(113.47 -425.19) rotate(18.61)"/><path id="_Path_40" data-name="&lt;Path&gt;" class="cls-4" d="M1355,66.07a13.62,13.62,0,0,1,12.64-8.56h0a13.61,13.61,0,0,1,13.61,13.61v31.26A13.61,13.61,0,0,1,1367.63,116h0A13.61,13.61,0,0,1,1354,102.38V86.75"/><path id="_Path_41" data-name="&lt;Path&gt;" class="cls-4" d="M1364.25,86.75v15.63a3.39,3.39,0,0,0,3.39,3.39"/><g id="_Group_9" data-name="&lt;Group&gt;"><line id="_Path_42" data-name="&lt;Path&gt;" class="cls-4" x1="1332.98" y1="125.53" x2="1374.98" y2="139.68"/><line id="_Path_43" data-name="&lt;Path&gt;" class="cls-4" x1="1326.77" y1="142.38" x2="1368.77" y2="156.53"/></g><path id="_Path_44" data-name="&lt;Path&gt;" class="cls-5" d="M1287.76,152.85l-5.51,16.37,107.38,36.17,5.51-16.37C1334.11,185,1287.76,152.85,1287.76,152.85Z"/></g><g id="_Group_10" data-name="&lt;Group&gt;"><line id="_Path_45" data-name="&lt;Path&gt;" class="cls-6" x1="1211.53" y1="385.49" x2="1211.53" y2="409.15"/><line id="_Path_46" data-name="&lt;Path&gt;" class="cls-6" x1="1223.36" y1="397.32" x2="1199.7" y2="397.32"/></g><g id="_Group_11" data-name="&lt;Group&gt;"><line id="_Path_47" data-name="&lt;Path&gt;" class="cls-6" x1="1211.53" y1="337.44" x2="1211.53" y2="361.1"/><line id="_Path_48" data-name="&lt;Path&gt;" class="cls-6" x1="1223.36" y1="349.27" x2="1199.7" y2="349.27"/></g><g id="_Group_12" data-name="&lt;Group&gt;"><line id="_Path_49" data-name="&lt;Path&gt;" class="cls-6" x1="367.05" y1="238.79" x2="367.05" y2="262.45"/><line id="_Path_50" data-name="&lt;Path&gt;" class="cls-6" x1="378.88" y1="250.62" x2="355.22" y2="250.62"/></g><g id="_Group_13" data-name="&lt;Group&gt;"><line id="_Path_51" data-name="&lt;Path&gt;" class="cls-6" x1="300.56" y1="350.47" x2="300.56" y2="374.14"/><line id="_Path_52" data-name="&lt;Path&gt;" class="cls-6" x1="312.39" y1="362.31" x2="288.73" y2="362.31"/></g><line id="_Path_53" data-name="&lt;Path&gt;" class="cls-7" x1="313.95" y1="597.32" x2="603.6" y2="597.32"/><g id="_Group_14" data-name="&lt;Group&gt;"><g id="_Group_15" data-name="&lt;Group&gt;"><rect id="_Rectangle_4" data-name="&lt;Rectangle&gt;" class="cls-4" x="1097.38" y="446.09" width="29.61" height="113.46" transform="translate(375.51 -470.36) rotate(28.55)"/><path id="_Path_54" data-name="&lt;Path&gt;" class="cls-6" d="M1157,439.56l-16-8.72a5.68,5.68,0,0,0-7.7,2.27l-7,12.81,26,14.15,7-12.8A5.68,5.68,0,0,0,1157,439.56Z"/><rect id="_Path_55" data-name="&lt;Path&gt;" class="cls-5" x="1140.79" y="436.07" width="6.7" height="16.05" transform="translate(207.2 1236.82) rotate(-61.45)"/><line id="_Path_56" data-name="&lt;Path&gt;" class="cls-6" x1="1139.3" y1="452.99" x2="1122.42" y2="484.01"/><polygon id="_Path_57" data-name="&lt;Path&gt;" class="cls-4" points="1072.07 545.59 1073.18 575.33 1098.07 559.73 1072.07 545.59"/></g><line id="_Path_58" data-name="&lt;Path&gt;" class="cls-4" x1="1134.36" y1="571.93" x2="1198.13" y2="571.93"/><line id="_Path_59" data-name="&lt;Path&gt;" class="cls-4" x1="1134.36" y1="555.12" x2="1198.13" y2="555.12"/></g><g id="_Group_16" data-name="&lt;Group&gt;"><path id="_Path_60" data-name="&lt;Path&gt;" class="cls-3" d="M826.83,556.78c-33.63,22.58-58.71-14.61-58.71-14.61-11.89-16.25-20.39.54-20.39.54-6.25,15.2-15.27,13.82-20.59,11.21A6.2,6.2,0,0,1,724,546.6l4-13.77A21.28,21.28,0,0,1,739.9,519.3l15.17-6.68c5.43-2.39,10.43-1.84,17.12-.48l39.55,9.36Z"/><path id="_Path_61" data-name="&lt;Path&gt;" class="cls-3" d="M835.18,576.3l-26,8.28-16.32-22.74s19,7.89,34-5.06Z"/><path id="_Path_62" data-name="&lt;Path&gt;" class="cls-3" d="M671.4,502.68l29.52,12.43-19.47,45.52a17.62,17.62,0,0,1-22.59,9.49l-13-5.06"/><path id="_Path_63" data-name="&lt;Path&gt;" class="cls-3" d="M841.26,509.08l-29.52,12.43L831.21,567a17.62,17.62,0,0,0,22.59,9.49l13-5.06"/><path id="_Path_64" data-name="&lt;Path&gt;" class="cls-6" d="M790.88,561.69l22.46,28.16a8,8,0,0,1,1.29,7.64h0a9.13,9.13,0,0,1-15.25,3.23L768.55,568"/><path id="_Path_65" data-name="&lt;Path&gt;" class="cls-6" d="M754.92,583.4l25.95,27.14c7,7.31,19.39,4.65,22.49-5l.14-.45"/><path id="_Path_66" data-name="&lt;Path&gt;" class="cls-6" d="M742.48,596.15,763.94,620a13.59,13.59,0,0,0,9.23,4.66c4,.22,9.18-1.32,13.48-8.38"/><path id="_Path_67" data-name="&lt;Path&gt;" class="cls-3" d="M743.83,517.57c-19.27-4.42-42.9-2.46-42.9-2.46"/><path id="_Path_68" data-name="&lt;Path&gt;" class="cls-3" d="M679.34,565.59a532.07,532.07,0,0,1,61.94,52.16l10.06,9.65c5,4.84,13.67,2.22,14.77-4.68,0-.09,0-.19,0-.28"/><path id="_Path_69" data-name="&lt;Path&gt;" class="cls-3" d="M696.37,578.36l-2.65,3a6.8,6.8,0,0,0,.76,9.8h0a7.55,7.55,0,0,0,10.45-.84l2.58-2.92"/><path id="_Path_70" data-name="&lt;Path&gt;" class="cls-3" d="M721.18,599.06l-5.8,6.32a8.45,8.45,0,0,1-11.76.68h0a8.45,8.45,0,0,1-.85-11.93l5.4-6.22"/><path id="_Path_71" data-name="&lt;Path&gt;" class="cls-3" d="M721.18,599.06l-3.75,4.09a8.39,8.39,0,0,0,.47,11.81h0a8.39,8.39,0,0,0,11.82-.39l3.92-4.16"/><path id="_Path_72" data-name="&lt;Path&gt;" class="cls-3" d="M745.12,621.43l-2.06,2.11a7.93,7.93,0,0,1-11.15.19h0a7.93,7.93,0,0,1-.29-11.17l1.48-1.57"/></g><path id="_Path_73" data-name="&lt;Path&gt;" class="cls-8" d="M68.63,274.21C29.83,247.57,4.18,203.27,4,152.85a148.33,148.33,0,1,1,296.66-.52"/><path id="_Path_74" data-name="&lt;Path&gt;" class="cls-8" d="M496.78,527.58c-35.31-35.31-55.41-76.84-72.75-122.12A163.55,163.55,0,0,0,271.22,300.66H153.94C72,300.66,4.28,366.49,4,448.46a148.33,148.33,0,1,0,296.66.52"/><path id="_Path_75" data-name="&lt;Path&gt;" class="cls-8" d="M496.78,527.58c-35.31-35.31-55.41-76.84-72.75-122.12A163.55,163.55,0,0,0,271.22,300.66H153.94C72,300.66,4.28,366.49,4,448.46a148.33,148.33,0,1,0,296.66.52"/><line id="_Path_76" data-name="&lt;Path&gt;" class="cls-7" x1="1198.13" y1="597.32" x2="908.49" y2="597.32"/><g id="_Group_17" data-name="&lt;Group&gt;"><g id="_Group_18" data-name="&lt;Group&gt;"><path id="_Path_77" data-name="&lt;Path&gt;" class="cls-9" d="M1087.83,109.36v8.36a27.26,27.26,0,1,0,21.74,43.71l6.67,5a35.62,35.62,0,1,1-28.41-57.11Z"/><circle id="_Path_78" data-name="&lt;Path&gt;" class="cls-4" cx="1087.83" cy="144.98" r="2.3"/><polyline id="_Path_79" data-name="&lt;Path&gt;" class="cls-4" points="1087.83 88.54 1087.83 144.98 1132.4 178.69"/><path id="_Path_80" data-name="&lt;Path&gt;" class="cls-10" d="M1111.28,260.92a118.72,118.72,0,0,0,87.34-74.49"/><path id="_Path_81" data-name="&lt;Path&gt;" class="cls-4" d="M1087.83,232.29a87.32,87.32,0,1,0-75.5-131.2"/><line id="_Path_82" data-name="&lt;Path&gt;" class="cls-4" x1="1175.15" y1="144.98" x2="1163.33" y2="144.98"/><line id="_Path_83" data-name="&lt;Path&gt;" class="cls-4" x1="1087.83" y1="57.66" x2="1087.83" y2="69.47"/><line id="_Path_84" data-name="&lt;Path&gt;" class="cls-4" x1="1087.83" y1="220.48" x2="1087.83" y2="232.29"/></g><path id="_Path_85" data-name="&lt;Path&gt;" class="cls-7" d="M352.65,175.05a71.75,71.75,0,0,0,91.69,43.52"/><g id="_Group_19" data-name="&lt;Group&gt;"><path id="_Path_86" data-name="&lt;Path&gt;" class="cls-4" d="M476.37,125.88a56.28,56.28,0,1,0-34.13,71.91"/><path id="_Path_87" data-name="&lt;Path&gt;" class="cls-4" d="M338.71,119.85a87.55,87.55,0,0,1,7.14-17.22A10.65,10.65,0,0,0,344,90h0a10.7,10.7,0,0,1,0-15.14l9.39-9.39a10.7,10.7,0,0,1,15.14,0h0a10.65,10.65,0,0,0,12.62,1.85q3.69-2,7.59-3.68v0a87.44,87.44,0,0,1,9.69-3.49A10.64,10.64,0,0,0,406,50h0a10.7,10.7,0,0,1,10.7-10.7H430A10.7,10.7,0,0,1,440.7,50h0a10.64,10.64,0,0,0,7.58,10.23,87.66,87.66,0,0,1,17.22,7.14,10.65,10.65,0,0,0,12.62-1.85h0a10.7,10.7,0,0,1,15.14,0l9.39,9.39a10.7,10.7,0,0,1,0,15.14h0a10.65,10.65,0,0,0-1.85,12.62,87.55,87.55,0,0,1,7.14,17.22"/><g id="_Group_20" data-name="&lt;Group&gt;"><path id="_Path_88" data-name="&lt;Path&gt;" class="cls-9" d="M412.53,167.47a25.94,25.94,0,0,0,33.19-9.76A26.84,26.84,0,0,1,408.38,123a26,26,0,0,0,4.15,44.45Z"/></g></g><g id="_Group_21" data-name="&lt;Group&gt;"><g id="_Group_22" data-name="&lt;Group&gt;"><g id="_Group_23" data-name="&lt;Group&gt;"><path id="_Path_89" data-name="&lt;Path&gt;" class="cls-7" d="M1207.53,67.39q-.7-1-1.41-2.06"/><path id="_Path_90" data-name="&lt;Path&gt;" class="cls-7" d="M1196.9,53.49a143,143,0,0,0-221,5.8"/><path id="_Path_91" data-name="&lt;Path&gt;" class="cls-7" d="M971.42,65.33q-.71,1-1.41,2.06"/></g></g></g><g id="_Group_24" data-name="&lt;Group&gt;"><g id="_Group_25" data-name="&lt;Group&gt;"><g id="_Group_26" data-name="&lt;Group&gt;"><path id="_Path_92" data-name="&lt;Path&gt;" class="cls-7" d="M304.56,67.39q.7-1,1.41-2.06"/><path id="_Path_93" data-name="&lt;Path&gt;" class="cls-7" d="M315.19,53.49a143,143,0,0,1,221,5.8"/><path id="_Path_94" data-name="&lt;Path&gt;" class="cls-7" d="M540.67,65.33q.71,1,1.41,2.06"/></g></g></g></g><path id="_Path_95" data-name="&lt;Path&gt;" class="cls-8" d="M1443.46,274.21c38.8-26.64,64.45-70.95,64.63-121.36a148.33,148.33,0,1,0-296.66-.52"/><g id="_Group_27" data-name="&lt;Group&gt;"><g id="_Group_28" data-name="&lt;Group&gt;"><polyline id="_Path_96" data-name="&lt;Path&gt;" class="cls-4" points="137.32 179.71 152.33 191.01 167.34 179.71"/><polyline id="_Path_97" data-name="&lt;Path&gt;" class="cls-4" points="160.64 186.27 173.93 242.53 152.33 262.44"/><polyline id="_Path_98" data-name="&lt;Path&gt;" class="cls-4" points="144.02 186.27 130.73 242.53 152.33 262.44"/><path id="_Path_99" data-name="&lt;Path&gt;" class="cls-5" d="M146.4,212.09c2.06,4.2,6.32,9.93,14.55,11.42l3.83,16.22-12.45,11.48-12.45-11.48Z"/></g><g id="_Group_29" data-name="&lt;Group&gt;"><path id="_Path_100" data-name="&lt;Path&gt;" class="cls-6" d="M115.94,239.76,63.58,228.92l6.92-34.65a34.16,34.16,0,0,1,11.71-19.57,27.92,27.92,0,0,1,11.47-6l29.59-8.59a6.45,6.45,0,0,0,4.61-5.44l1.37-11.71c-8.29-6.43-14.41-16-17.36-27.28-5.28-.47-9.34-6.34-9.34-13.76,0-6.85,3.44-12.39,8.16-13.58"/><path id="_Path_101" data-name="&lt;Path&gt;" class="cls-6" d="M194.21,88.38c4.58,1.31,7.9,6.77,7.9,13.5,0,7.41-4,13.28-9.31,13.76-3,11.22-9.08,20.84-17.37,27.28l1.35,11.71a6.44,6.44,0,0,0,4.6,5.45l29.49,8.56a27.94,27.94,0,0,1,11.57,6.05,34.06,34.06,0,0,1,11.71,19.57l6.92,34.65-46.86,9.71"/></g><path id="_Path_102" data-name="&lt;Path&gt;" class="cls-6" d="M110.7,88.3s-2.45-49,41.63-49,41.87,49.11,41.87,49.11"/><path id="_Path_103" data-name="&lt;Path&gt;" class="cls-6" d="M191.07,67.31a15.75,15.75,0,0,0-8.75-7.56c-6-2.17-12.67-.44-18.45,2.2-8.35,3.81-15.64,8.3-25,9.33-8.92,1-17.09,0-25.1-4.09"/><polyline id="_Path_104" data-name="&lt;Path&gt;" class="cls-4" points="128.19 151.89 152.33 173.5 176.47 151.89"/><line id="_Path_105" data-name="&lt;Path&gt;" class="cls-4" x1="113.77" y1="209.99" x2="86.46" y2="204.84"/></g><path id="_Path_106" data-name="&lt;Path&gt;" class="cls-8" d="M1015.3,527.58c35.31-35.31,55.41-76.84,72.75-122.12a163.55,163.55,0,0,1,152.82-104.81h117.28c82,0,149.65,65.83,149.94,147.8a148.33,148.33,0,1,1-296.66.52"/><line id="_Path_107" data-name="&lt;Path&gt;" class="cls-6" x1="300.56" y1="209.31" x2="300.56" y2="232.98"/><line id="_Path_108" data-name="&lt;Path&gt;" class="cls-6" x1="288.73" y1="221.15" x2="312.39" y2="221.15"/><g id="_Group_30" data-name="&lt;Group&gt;"><line id="_Path_109" data-name="&lt;Path&gt;" class="cls-6" x1="1240.59" y1="207.64" x2="1240.59" y2="231.31"/><line id="_Path_110" data-name="&lt;Path&gt;" class="cls-6" x1="1228.76" y1="219.47" x2="1252.42" y2="219.47"/></g><path id="_Path_111" data-name="&lt;Path&gt;" class="cls-7" d="M1354,271.76H1236.74a184.68,184.68,0,0,0-144.81,70"/><path id="_Path_112" data-name="&lt;Path&gt;" class="cls-7" d="M245.6,271.76h29.19a184.68,184.68,0,0,1,144.81,70"/><polyline id="_Path_113" data-name="&lt;Path&gt;" class="cls-4" points="1483.85 314.57 1464.29 299.45 1483.85 284.33"/><g id="_Group_31" data-name="&lt;Group&gt;"><polyline id="_Path_114" data-name="&lt;Path&gt;" class="cls-4" points="744.01 408.79 756.04 393.23 768.08 408.79"/><polyline id="_Path_115" data-name="&lt;Path&gt;" class="cls-4" points="744.01 431.21 756.04 415.65 768.08 431.21"/><polyline id="_Path_116" data-name="&lt;Path&gt;" class="cls-4" points="744.01 453.63 756.04 438.07 768.08 453.63"/></g><polyline id="_Path_117" data-name="&lt;Path&gt;" class="cls-4" points="28.82 314.57 48.38 299.45 28.82 284.33"/><path id="_Path_118" data-name="&lt;Path&gt;" class="cls-11" d="M756,4.06c-165.15,0-299,133.88-299,299C457,428,532,533,640.79,577.76L674,496.63c-78.54-32.1-133.3-103.44-133.3-193.54,0-118.9,96.39-215.29,215.29-215.29h.3V4.07Z"/><path id="_Path_119" data-name="&lt;Path&gt;" class="cls-5" d="M756.33,4.07V87.82c118.76.16,215,96.48,215,215.28,0,89.83-54.93,166.35-133.11,198.62l32.93,80.93c110.66-43.85,183.93-153.28,183.93-279.55C1055.07,138,921.35,4.23,756.33,4.07Z"/><path id="_Path_120" data-name="&lt;Path&gt;" class="cls-3" d="M248.7,516a14.19,14.19,0,0,1-3.23,9.32,121.1,121.1,0,0,1-186.3,0A14.19,14.19,0,0,1,56,516h0a8,8,0,0,1,8-8H240.69a8,8,0,0,1,8,8Z"/><polygon id="_Path_121" data-name="&lt;Path&gt;" class="cls-9" points="152.33 351.23 152.33 367.23 181.19 383.23 210.04 383.23 152.33 351.23"/></g></g></g></svg>